<svg xmlns="http://www.w3.org/2000/svg" width="46" height="63" viewBox="0 0 46 63">
    <g fill="none" fill-rule="nonzero">
        <path d="M23 24.883c-2.275 0-4.119 1.834-4.119 4.098v3.218h-3.233c-2.274 0-4.118 1.835-4.118 4.098 0 2.264 1.844 4.099 4.118 4.099h3.233v3.218c0 2.263 1.844 4.098 4.118 4.098s4.118-1.835 4.118-4.098v-3.218h3.233c2.275 0 4.118-1.835 4.118-4.099 0-2.263-1.843-4.098-4.118-4.098h-3.233v-3.218c0-2.264-1.844-4.098-4.118-4.098z"/>
        <g fill="#FFF">
            <path d="M23 49.46c-3.24 0-5.874-2.623-5.874-5.846v-1.471h-1.478c-3.238 0-5.873-2.622-5.873-5.845s2.635-5.846 5.873-5.846h1.478v-1.47c0-3.224 2.635-5.846 5.873-5.846 3.239 0 5.873 2.622 5.873 5.845v1.471h1.479c3.238 0 5.873 2.623 5.873 5.846s-2.635 5.845-5.873 5.845h-1.479v1.471c0 3.223-2.634 5.845-5.873 5.845zm-7.352-15.514a2.36 2.36 0 0 0-2.363 2.351 2.36 2.36 0 0 0 2.363 2.352h3.233c.97 0 1.755.782 1.755 1.747v3.218A2.36 2.36 0 0 0 23 45.965a2.36 2.36 0 0 0 2.363-2.351v-3.218c0-.965.786-1.747 1.755-1.747h3.233a2.36 2.36 0 0 0 2.363-2.352 2.36 2.36 0 0 0-2.363-2.351h-3.233c-.97 0-1.755-.782-1.755-1.747v-3.218a2.36 2.36 0 0 0-2.363-2.352 2.36 2.36 0 0 0-2.363 2.352v3.218c0 .965-.785 1.747-1.755 1.747h-3.233z"/>
            <path d="M23 62.34c-6.237 0-11.997-2.332-16.218-6.565C2.454 51.435.07 45.362.07 38.675c0-15.114 15.865-32.708 20.728-37.74.58-.6 1.36-.932 2.197-.935h.01c.832 0 1.61.327 2.192.921.817.835 2.115 2.199 3.665 3.958.639.726.566 1.83-.163 2.465a1.76 1.76 0 0 1-2.477-.162 103.096 103.096 0 0 0-3.215-3.49C19.085 7.802 3.58 24.925 3.58 38.675c0 11.688 8.167 20.171 19.418 20.171 11.252 0 19.418-8.483 19.418-20.17 0-8.604-5.885-18.285-10.823-24.891a1.741 1.741 0 0 1 .361-2.444 1.76 1.76 0 0 1 2.456.359C42.053 21.925 45.927 31 45.927 38.675c0 6.687-2.383 12.76-6.71 17.1-4.222 4.233-9.981 6.565-16.218 6.565z"/>
        </g>
    </g>
</svg>
