<svg xmlns="http://www.w3.org/2000/svg" width="87" height="100" viewBox="0 0 87 100">
    <g fill="none" fill-rule="nonzero">
        <path fill="#FFF" d="M65.816 93.05a4.538 4.538 0 0 1-4.54 4.539H6.81a4.538 4.538 0 0 1-4.54-4.54V15.888a4.538 4.538 0 0 1 4.54-4.54h54.468a4.538 4.538 0 0 1 4.539 4.54V93.05z"/>
        <path fill="#000" d="M61.277 99.858H6.809A6.817 6.817 0 0 1 0 93.05V15.887a6.817 6.817 0 0 1 6.809-6.809h54.468a6.817 6.817 0 0 1 6.808 6.809V93.05a6.817 6.817 0 0 1-6.808 6.808zM6.809 13.617a2.273 2.273 0 0 0-2.27 2.27V93.05c0 1.25 1.02 2.27 2.27 2.27h54.468c1.25 0 2.27-1.02 2.27-2.27V15.887c0-1.251-1.02-2.27-2.27-2.27H6.809z"/>
        <path fill="#D8EFF7" d="M54.468 90.78H13.617a4.538 4.538 0 0 1-4.539-4.539V20.426h49.93V86.24a4.538 4.538 0 0 1-4.54 4.54z"/>
        <path fill="#0093FF" d="M56.738 20.426h-45.39v-4.54c0-7.52 6.095-13.616 13.616-13.616H43.12c7.521 0 13.617 6.096 13.617 13.617v4.539z"/>
        <path fill="#000" d="M56.738 22.695h-45.39a2.27 2.27 0 0 1-2.27-2.27v-4.538C9.078 7.127 16.204 0 24.964 0H43.12c8.76 0 15.887 7.126 15.887 15.887v4.539a2.27 2.27 0 0 1-2.27 2.27zm-43.121-4.539h40.851v-2.27c0-6.256-5.09-11.347-11.347-11.347H24.965c-6.258 0-11.348 5.09-11.348 11.348v2.269z"/>
        <circle cx="34.043" cy="11.347" r="2.27" fill="#000"/>
        <path fill="#000" d="M52.199 34.043H15.887a2.27 2.27 0 0 1 0-4.54h36.312a2.27 2.27 0 0 1 0 4.54zM34.043 45.39H15.887a2.27 2.27 0 0 1 0-4.539h18.156a2.27 2.27 0 0 1 0 4.539zM52.199 45.39H43.12a2.27 2.27 0 0 1 0-4.539H52.2a2.27 2.27 0 0 1 0 4.539zM52.199 56.738H34.043a2.27 2.27 0 0 1 0-4.54h18.156a2.27 2.27 0 0 1 0 4.54zM24.964 56.738h-9.078a2.27 2.27 0 0 1 0-4.54h9.079a2.27 2.27 0 0 1 0 4.54zM52.199 79.433H34.043a2.27 2.27 0 0 1 0-4.54h18.156a2.27 2.27 0 0 1 0 4.54zM24.964 79.433h-9.078a2.27 2.27 0 0 1 0-4.54h9.078a2.27 2.27 0 0 1 0 4.54zM34.043 68.085H15.887a2.27 2.27 0 0 1 0-4.539h18.156a2.27 2.27 0 0 1 0 4.54zM52.199 68.085H43.12a2.27 2.27 0 0 1 0-4.539H52.2a2.27 2.27 0 0 1 0 4.54z"/>
        <circle cx="65.816" cy="54.468" r="18.156" fill="#13BA8E"/>
        <path fill="#000" d="M65.816 74.894c-11.262 0-20.426-9.165-20.426-20.426s9.164-20.425 20.426-20.425c11.26 0 20.425 9.164 20.425 20.425 0 11.261-9.164 20.426-20.425 20.426zm0-36.313c-8.76 0-15.887 7.127-15.887 15.887 0 8.76 7.126 15.887 15.887 15.887 8.76 0 15.886-7.127 15.886-15.887 0-8.76-7.126-15.887-15.886-15.887z"/>
        <path fill="#000" d="M65.816 61.277c-.6 0-1.178-.236-1.605-.665l-6.808-6.809a2.267 2.267 0 0 1 0-3.209 2.267 2.267 0 0 1 3.209 0l4.752 4.752 5.313-8.855a2.269 2.269 0 1 1 3.892 2.335l-6.808 11.348a2.272 2.272 0 0 1-1.945 1.103z"/>
    </g>
</svg>
