<svg xmlns="http://www.w3.org/2000/svg" width="118" height="117" viewBox="0 0 118 117">
    <defs>
        <filter id="a" width="142.8%" height="142.8%" x="-21.4%" y="-15.3%" filterUnits="objectBoundingBox">
            <feOffset dy="11" in="SourceAlpha" result="shadowOffsetOuter1"/>
            <feGaussianBlur in="shadowOffsetOuter1" result="shadowBlurOuter1" stdDeviation="11"/>
            <feColorMatrix in="shadowBlurOuter1" result="shadowMatrixOuter1" values="0 0 0 0 0 0 0 0 0 0 0 0 0 0 0 0 0 0 0.344061368 0"/>
            <feMerge>
                <feMergeNode in="shadowMatrixOuter1"/>
                <feMergeNode in="SourceGraphic"/>
            </feMerge>
        </filter>
    </defs>
    <g fill="none" fill-rule="nonzero" filter="url(#a)" transform="translate(22 10)">
        <g opacity=".5" transform="translate(23.46)">
            <path fill="#FFF" d="M48.756 68.857a3.358 3.358 0 0 1-3.359 3.358H5.091a3.358 3.358 0 0 1-3.359-3.358v-57.1a3.358 3.358 0 0 1 3.359-3.36h40.306a3.358 3.358 0 0 1 3.36 3.36v57.1z"/>
            <path fill="#000" d="M45.397 73.895H5.091a5.044 5.044 0 0 1-5.039-5.038v-57.1a5.044 5.044 0 0 1 5.039-5.04h40.306a5.044 5.044 0 0 1 5.038 5.04v57.1a5.044 5.044 0 0 1-5.038 5.038zM5.091 10.077c-.927 0-1.68.754-1.68 1.68v57.1c0 .925.753 1.68 1.68 1.68h40.306c.927 0 1.68-.755 1.68-1.68v-57.1c0-.926-.753-1.68-1.68-1.68H5.091z"/>
            <path fill="#0093FF" d="M42.038 15.115H8.45v-3.359C8.45 6.19 12.96 1.68 18.526 1.68h13.436c5.565 0 10.076 4.511 10.076 10.077v3.359z"/>
            <path fill="#000" d="M42.038 16.794H8.45c-.93 0-1.68-.752-1.68-1.68v-3.358C6.77 5.273 12.045 0 18.526 0h13.436c6.48 0 11.756 5.273 11.756 11.756v3.359c0 .927-.75 1.68-1.68 1.68zM10.13 13.435h30.23v-1.679c0-4.63-3.767-8.397-8.397-8.397H18.526c-4.63 0-8.397 3.767-8.397 8.397v1.68z"/>
            <circle cx="25.244" cy="8.397" r="1.679" fill="#000"/>
            <g fill="#000">
                <path d="M38.68 25.191H11.808a1.679 1.679 0 1 1 0-3.358h26.87a1.679 1.679 0 1 1 0 3.358zM25.244 33.589H11.809a1.679 1.679 0 1 1 0-3.36h13.435a1.679 1.679 0 1 1 0 3.36zM38.68 33.589h-6.718a1.679 1.679 0 1 1 0-3.36h6.717a1.679 1.679 0 1 1 0 3.36zM38.68 41.986H25.243a1.679 1.679 0 1 1 0-3.36H38.68a1.679 1.679 0 1 1 0 3.36zM18.526 41.986H11.81a1.679 1.679 0 1 1 0-3.36h6.717a1.679 1.679 0 1 1 0 3.36zM38.68 58.78H25.243a1.679 1.679 0 1 1 0-3.359H38.68a1.679 1.679 0 1 1 0 3.36zM18.526 58.78H11.81a1.679 1.679 0 1 1 0-3.359h6.717a1.679 1.679 0 1 1 0 3.36zM25.244 50.383H11.809a1.679 1.679 0 1 1 0-3.359h13.435a1.679 1.679 0 1 1 0 3.359zM38.68 50.383h-6.718a1.679 1.679 0 1 1 0-3.359h6.717a1.679 1.679 0 1 1 0 3.359z"/>
            </g>
        </g>
        <circle cx="58.78" cy="41.986" r="8.397" fill="#13BA8E"/>
        <circle cx="58.78" cy="41.986" r="1.679" fill="#000"/>
        <path fill="#000" d="M68.857 41.986c0-5.557-4.52-10.077-10.077-10.077s-10.077 4.52-10.077 10.077c0 4.983 3.64 9.12 8.398 9.925v13.587a5.044 5.044 0 0 1-5.039 5.038h-1.679a5.044 5.044 0 0 1-5.038-5.038V58.78c0-4.63-3.767-8.397-8.397-8.397h-1.68c-4.63 0-8.397 3.767-8.397 8.397v6.718a5.044 5.044 0 0 1-5.038 5.038h-1.68a5.044 5.044 0 0 1-5.038-5.038V36.832C21.732 36 26.87 30.35 26.87 23.512V5.038a3.362 3.362 0 0 0-3.359-3.359h-3.359a1.679 1.679 0 1 0 0 3.36h3.359v11.756c0 5.557-4.52 10.076-10.077 10.076S3.36 22.351 3.36 16.794V5.038h3.359a1.679 1.679 0 1 0 0-3.359h-3.36A3.362 3.362 0 0 0 0 5.04v18.473C0 30.351 5.14 36 11.756 36.832v28.666c0 4.63 3.767 8.397 8.397 8.397h1.68c4.63 0 8.397-3.767 8.397-8.397V58.78a5.044 5.044 0 0 1 5.038-5.038h1.68a5.044 5.044 0 0 1 5.038 5.038v6.718c0 4.63 3.767 8.397 8.397 8.397h1.68c4.63 0 8.397-3.767 8.397-8.397V51.91c4.757-.804 8.397-4.942 8.397-9.925zM3.685 26.009c2.452 2.593 5.911 4.22 9.75 4.22 3.84 0 7.3-1.627 9.751-4.22-1.115 4.35-5.058 7.58-9.75 7.58-4.693 0-8.636-3.23-9.751-7.58zM58.78 48.703a6.725 6.725 0 0 1-6.718-6.717 6.725 6.725 0 0 1 6.718-6.718 6.725 6.725 0 0 1 6.718 6.718 6.724 6.724 0 0 1-6.718 6.717z"/>
    </g>
</svg>
