<svg xmlns="http://www.w3.org/2000/svg" width="77" height="77" viewBox="0 0 77 77">
    <defs>
        <filter id="a" width="105.6%" height="192.6%" x="-2.8%" y="-31.5%" filterUnits="objectBoundingBox">
            <feOffset dy="12" in="SourceAlpha" result="shadowOffsetOuter1"/>
            <feGaussianBlur in="shadowOffsetOuter1" result="shadowBlurOuter1" stdDeviation="10.5"/>
            <feColorMatrix in="shadowBlurOuter1" result="shadowMatrixOuter1" values="0 0 0 0 0 0 0 0 0 0 0 0 0 0 0 0 0 0 0.35716712 0"/>
            <feMerge>
                <feMergeNode in="shadowMatrixOuter1"/>
                <feMergeNode in="SourceGraphic"/>
            </feMerge>
        </filter>
    </defs>
    <g fill="none" fill-rule="nonzero" filter="url(#a)" transform="translate(21 9)">
        <path fill="#2D527C" d="M31.202 35H3.661a3.644 3.644 0 0 1-3.64-3.64V10.4a3.644 3.644 0 0 1 3.64-3.64h27.541a3.644 3.644 0 0 1 3.64 3.64v1.18a1 1 0 0 1-1.998 0V10.4c0-.906-.736-1.642-1.642-1.642H3.661c-.906 0-1.642.736-1.642 1.641v20.96c0 .906.736 1.643 1.642 1.643h27.541c.906 0 1.642-.737 1.642-1.642V16.683a1 1 0 0 1 1.999 0V31.36a3.644 3.644 0 0 1-3.64 3.64z"/>
        <circle cx="17.432" cy="20.88" r="8.12" fill="#13BA8E"/>
        <g fill="#2D527C">
            <path d="M17.432 29.998c-5.029 0-9.12-4.09-9.12-9.118 0-5.028 4.092-9.12 9.12-9.12s9.118 4.092 9.118 9.12-4.09 9.118-9.118 9.118zm0-16.239c-3.927 0-7.12 3.195-7.12 7.12A7.128 7.128 0 0 0 17.431 28a7.128 7.128 0 0 0 7.12-7.12 7.128 7.128 0 0 0-7.12-7.12z"/>
            <path d="M17.432 25.11a1 1 0 0 1-1-1V17.65a1 1 0 0 1 1.999 0v6.461a1 1 0 0 1-1 1z"/>
            <path d="M20.662 21.879h-6.461a1 1 0 0 1 0-1.999h6.461a1 1 0 0 1 0 1.999zM23.189 8.608h-.002a1 1 0 0 1-.997-1.002l.009-4.289a1.274 1.274 0 0 0-.372-.91 1.273 1.273 0 0 0-.904-.379l-6.95-.03a1.282 1.282 0 0 0-1.288 1.276l-.02 3.816a1 1 0 0 1-1 .994h-.005a1 1 0 0 1-.994-1.005l.021-3.814A3.283 3.283 0 0 1 13.967 0h.014l6.95.03a3.284 3.284 0 0 1 3.266 3.294l-.01 4.286a1 1 0 0 1-.998.998z"/>
            <path d="M29.538 8.521H23.31a1 1 0 0 1-1-1V4.477a1 1 0 0 1 1-1h4.445a2.784 2.784 0 0 1 2.781 2.782v1.264a1 1 0 0 1-1 1zM24.31 6.523h4.228v-.265a.784.784 0 0 0-.782-.783H24.31v1.048zM11.552 8.521H5.325a1 1 0 0 1-.999-1V6.259a2.784 2.784 0 0 1 2.781-2.781h4.445a1 1 0 0 1 1 .999v3.046a1 1 0 0 1-1 1zM6.325 6.523h4.228V5.475H7.107a.784.784 0 0 0-.782.783v.265z"/>
        </g>
    </g>
</svg>
