<svg xmlns="http://www.w3.org/2000/svg" width="74" height="75" viewBox="0 0 74 75">
    <defs>
        <filter id="a" width="105.6%" height="192.6%" x="-2.8%" y="-31.5%" filterUnits="objectBoundingBox">
            <feOffset dy="12" in="SourceAlpha" result="shadowOffsetOuter1"/>
            <feGaussianBlur in="shadowOffsetOuter1" result="shadowBlurOuter1" stdDeviation="10.5"/>
            <feColorMatrix in="shadowBlurOuter1" result="shadowMatrixOuter1" values="0 0 0 0 0 0 0 0 0 0 0 0 0 0 0 0 0 0 0.35716712 0"/>
            <feMerge>
                <feMergeNode in="shadowMatrixOuter1"/>
                <feMergeNode in="SourceGraphic"/>
            </feMerge>
        </filter>
    </defs>
    <g fill="none" fill-rule="nonzero" filter="url(#a)" transform="translate(-264 -16)">
        <path fill="#0093FF" d="M305.86 56.977h-9.678v-5.912c0-1.212.983-2.195 2.195-2.195h5.289c1.212 0 2.195.983 2.195 2.195v5.912z"/>
        <g fill="#2D527C">
            <path d="M305.86 58h-9.678a1.023 1.023 0 0 1-1.022-1.023v-5.912a3.221 3.221 0 0 1 3.217-3.217h5.289a3.221 3.221 0 0 1 3.217 3.217v5.912c0 .565-.458 1.023-1.022 1.023zm-8.655-2.045h7.633v-4.89c0-.646-.526-1.172-1.172-1.172h-5.289c-.646 0-1.172.526-1.172 1.172v4.89zM291.307 58h-6.237a1.023 1.023 0 0 1-1.023-1.023v-9.714a3.788 3.788 0 0 1 3.783-3.784 1.023 1.023 0 1 1 0 2.046 1.74 1.74 0 0 0-1.738 1.738v8.692h5.215a1.023 1.023 0 0 1 0 2.045zM316.973 58h-6.237a1.023 1.023 0 1 1 0-2.045h5.215v-8.692a1.74 1.74 0 0 0-1.738-1.739 1.023 1.023 0 1 1 0-2.045 3.788 3.788 0 0 1 3.783 3.784v9.714c0 .565-.458 1.023-1.023 1.023zM306.509 45.116h-10.975a1.023 1.023 0 1 1 0-2.045h10.975a1.023 1.023 0 1 1 0 2.045zM306.509 40.821h-10.975a1.023 1.023 0 1 1 0-2.045h10.975a1.023 1.023 0 1 1 0 2.045z"/>
            <path d="M310.736 58h-19.429a1.023 1.023 0 0 1-1.022-1.023V35.442a4.523 4.523 0 0 1 4.295-4.51h12.884l.064.003a4.523 4.523 0 0 1 4.23 4.507v21.536c0 .564-.457 1.022-1.022 1.022zm-18.406-2.045h17.383V35.442a2.475 2.475 0 0 0-2.284-2.464h-12.815a2.475 2.475 0 0 0-2.284 2.464v20.513z"/>
        </g>
        <path fill="#13BA8E" d="M301.022 24.023a2.2 2.2 0 0 0-2.2 2.2v1.728h-1.728a2.2 2.2 0 1 0 0 4.4h1.727v1.728a2.2 2.2 0 1 0 4.4 0V32.35h1.728a2.2 2.2 0 1 0 0-4.4h-1.727v-1.728a2.2 2.2 0 0 0-2.2-2.2z"/>
        <path fill="#2D527C" d="M301.022 37.301a3.227 3.227 0 0 1-3.223-3.222v-.706h-.705a3.227 3.227 0 0 1-3.223-3.222 3.226 3.226 0 0 1 3.223-3.223h.705v-.705A3.226 3.226 0 0 1 301.022 23a3.226 3.226 0 0 1 3.222 3.223v.705h.705a3.227 3.227 0 0 1 3.223 3.223 3.226 3.226 0 0 1-3.223 3.223h-.705v.705a3.227 3.227 0 0 1-3.222 3.222zm-3.928-8.328a1.18 1.18 0 0 0-1.178 1.178c0 .65.528 1.177 1.178 1.177h1.727c.565 0 1.023.458 1.023 1.023v1.728a1.18 1.18 0 0 0 2.355 0V32.35c0-.565.458-1.023 1.023-1.023h1.727a1.18 1.18 0 0 0 1.178-1.177 1.18 1.18 0 0 0-1.178-1.178h-1.727a1.023 1.023 0 0 1-1.023-1.023v-1.727a1.18 1.18 0 0 0-1.177-1.178 1.18 1.18 0 0 0-1.178 1.178v1.728c0 .564-.458 1.022-1.023 1.022h-1.727z"/>
    </g>
</svg>
