<svg xmlns="http://www.w3.org/2000/svg" width="69" height="76" viewBox="0 0 69 76">
    <defs>
        <filter id="a" width="105.6%" height="192.6%" x="-2.8%" y="-31.5%" filterUnits="objectBoundingBox">
            <feOffset dy="12" in="SourceAlpha" result="shadowOffsetOuter1"/>
            <feGaussianBlur in="shadowOffsetOuter1" result="shadowBlurOuter1" stdDeviation="10.5"/>
            <feColorMatrix in="shadowBlurOuter1" result="shadowMatrixOuter1" values="0 0 0 0 0 0 0 0 0 0 0 0 0 0 0 0 0 0 0.35716712 0"/>
            <feMerge>
                <feMergeNode in="shadowMatrixOuter1"/>
                <feMergeNode in="SourceGraphic"/>
            </feMerge>
        </filter>
    </defs>
    <g fill="none" fill-rule="nonzero" filter="url(#a)" transform="translate(17 8)">
        <g fill="#FFF" transform="translate(3.76 .745)">
            <path d="M23.88 11.965c0 6.58-7.282 20.652-11.915 20.652C7.33 32.617.05 18.545.05 11.965.05 5.385 5.384.05 11.965.05c6.58 0 11.914 5.334 11.914 11.915z"/>
            <circle cx="11.965" cy="25.468" r="2.383"/>
        </g>
        <circle cx="17.475" cy="12.709" r="6.355" fill="#FFF"/>
        <path fill="#0093FF" d="M17.475 29.39a3.18 3.18 0 0 1-3.177-3.177 3.18 3.18 0 0 1 3.177-3.178 3.18 3.18 0 0 1 3.178 3.178 3.18 3.18 0 0 1-3.178 3.177zm0-4.766a1.59 1.59 0 0 0-1.588 1.589 1.59 1.59 0 0 0 1.588 1.588 1.59 1.59 0 0 0 1.589-1.588 1.59 1.59 0 0 0-1.589-1.589z"/>
        <path fill="#000" d="M34.156 33.362h-5.56a.795.795 0 0 0 0 1.588h5.56a.795.795 0 0 0 0-1.588zM25.418 33.362h-5.651c4.926-3.156 10.417-14.999 10.417-20.653C30.184 5.702 24.483 0 17.475 0 10.468 0 4.766 5.702 4.766 12.71c0 5.653 5.491 17.496 10.418 20.652H.794a.795.795 0 0 0 0 1.588h24.624a.795.795 0 0 0 0-1.588zM6.355 12.709c0-6.132 4.988-11.12 11.12-11.12 6.132 0 11.12 4.988 11.12 11.12 0 6.681-7.379 19.858-11.12 19.858-3.741 0-11.12-13.177-11.12-19.858z"/>
        <path fill="#000" d="M17.475 19.858c-3.941 0-7.149-3.207-7.149-7.149 0-3.941 3.208-7.149 7.15-7.149 3.94 0 7.148 3.208 7.148 7.15 0 3.94-3.207 7.148-7.149 7.148zm0-12.71a5.566 5.566 0 0 0-5.56 5.561 5.566 5.566 0 0 0 5.56 5.56 5.566 5.566 0 0 0 5.56-5.56 5.566 5.566 0 0 0-5.56-5.56z"/>
        <path fill="#13BA8E" d="M19.858 11.518h-1.191v-1.192a1.19 1.19 0 1 0-2.383 0v1.192h-1.192a1.19 1.19 0 1 0 0 2.383h1.192v1.191a1.19 1.19 0 1 0 2.383 0v-1.191h1.191a1.19 1.19 0 1 0 0-2.383z"/>
    </g>
</svg>
