<svg xmlns="http://www.w3.org/2000/svg" width="116" height="117" viewBox="0 0 116 117">
    <defs>
        <filter id="a" width="142.8%" height="142.8%" x="-21.4%" y="-15.3%" filterUnits="objectBoundingBox">
            <feOffset dy="11" in="SourceAlpha" result="shadowOffsetOuter1"/>
            <feGaussianBlur in="shadowOffsetOuter1" result="shadowBlurOuter1" stdDeviation="11"/>
            <feColorMatrix in="shadowBlurOuter1" result="shadowMatrixOuter1" values="0 0 0 0 0 0 0 0 0 0 0 0 0 0 0 0 0 0 0.344061368 0"/>
            <feMerge>
                <feMergeNode in="shadowMatrixOuter1"/>
                <feMergeNode in="SourceGraphic"/>
            </feMerge>
        </filter>
    </defs>
    <g fill="none" fill-rule="nonzero" filter="url(#a)" transform="translate(-32 -12)">
        <path fill="#0093FF" d="M99.993 93.485H79.63V81.047a4.618 4.618 0 0 1 4.618-4.618h11.127a4.618 4.618 0 0 1 4.618 4.618v12.438z"/>
        <g fill="#2D527C">
            <path d="M99.993 95.636H79.63a2.151 2.151 0 0 1-2.151-2.151V81.047a6.777 6.777 0 0 1 6.77-6.77h11.126a6.777 6.777 0 0 1 6.769 6.77v12.438a2.152 2.152 0 0 1-2.151 2.151zm-18.211-4.302h16.06V81.047a2.47 2.47 0 0 0-2.467-2.467H84.248a2.47 2.47 0 0 0-2.466 2.467v10.287zM69.373 95.636H56.25a2.151 2.151 0 0 1-2.151-2.151V73.046c0-4.389 3.57-7.96 7.96-7.96a2.151 2.151 0 1 1 0 4.303 3.661 3.661 0 0 0-3.657 3.658v18.287h10.971a2.151 2.151 0 0 1 0 4.302zM123.373 95.636H110.25a2.151 2.151 0 1 1 0-4.302h10.971V73.046a3.661 3.661 0 0 0-3.657-3.657 2.151 2.151 0 1 1 0-4.303c4.39 0 7.96 3.571 7.96 7.96v20.439a2.151 2.151 0 0 1-2.151 2.151zM101.356 68.53h-23.09a2.151 2.151 0 1 1 0-4.303h23.09a2.151 2.151 0 1 1 0 4.303zM101.356 59.494h-23.09a2.151 2.151 0 1 1 0-4.303h23.09a2.151 2.151 0 1 1 0 4.303z"/>
            <path d="M110.25 95.636H69.373a2.151 2.151 0 0 1-2.151-2.151V48.177c0-5.004 3.91-9.17 8.901-9.483.045-.003.09-.004.135-.004h27.107c.045 0 .09.001.135.004 4.991.314 8.901 4.48 8.901 9.483v45.308a2.151 2.151 0 0 1-2.151 2.151zm-38.725-4.302h36.573V48.177a5.207 5.207 0 0 0-4.807-5.184h-26.96a5.207 5.207 0 0 0-4.806 5.184v43.157z"/>
        </g>
        <path fill="#13BA8E" d="M89.812 24.151a4.63 4.63 0 0 0-4.63 4.63v3.634h-3.634a4.63 4.63 0 1 0 0 9.258h3.634v3.635a4.63 4.63 0 1 0 9.258 0v-3.634h3.636a4.63 4.63 0 1 0 0-9.258H94.44V28.78a4.63 4.63 0 0 0-4.63-4.63z"/>
        <path fill="#2D527C" d="M89.812 52.089a6.788 6.788 0 0 1-6.781-6.78v-1.484h-1.483a6.788 6.788 0 0 1-6.781-6.78 6.788 6.788 0 0 1 6.78-6.781h1.484V28.78a6.788 6.788 0 0 1 6.78-6.78 6.788 6.788 0 0 1 6.781 6.78v1.484h1.484a6.788 6.788 0 0 1 6.78 6.78 6.788 6.788 0 0 1-6.78 6.781h-1.484v1.483a6.788 6.788 0 0 1-6.78 6.78zm-8.264-17.522a2.48 2.48 0 0 0-2.478 2.478 2.48 2.48 0 0 0 2.478 2.477h3.634c1.189 0 2.152.963 2.152 2.152v3.634a2.48 2.48 0 0 0 2.478 2.478 2.48 2.48 0 0 0 2.477-2.478v-3.635c0-1.188.963-2.151 2.152-2.151h3.635a2.48 2.48 0 0 0 2.477-2.478 2.48 2.48 0 0 0-2.477-2.477H94.44a2.151 2.151 0 0 1-2.152-2.152v-3.634a2.48 2.48 0 0 0-2.477-2.478 2.48 2.48 0 0 0-2.478 2.478v3.634a2.151 2.151 0 0 1-2.152 2.152h-3.634z"/>
    </g>
</svg>
