<svg xmlns="http://www.w3.org/2000/svg" width="106" height="118" viewBox="0 0 106 118">
    <defs>
        <filter id="a" width="142.8%" height="142.8%" x="-21.4%" y="-15.3%" filterUnits="objectBoundingBox">
            <feOffset dy="11" in="SourceAlpha" result="shadowOffsetOuter1"/>
            <feGaussianBlur in="shadowOffsetOuter1" result="shadowBlurOuter1" stdDeviation="11"/>
            <feColorMatrix in="shadowBlurOuter1" result="shadowMatrixOuter1" values="0 0 0 0 0 0 0 0 0 0 0 0 0 0 0 0 0 0 0.344061368 0"/>
            <feMerge>
                <feMergeNode in="shadowMatrixOuter1"/>
                <feMergeNode in="SourceGraphic"/>
            </feMerge>
        </filter>
    </defs>
    <g fill="none" fill-rule="nonzero" filter="url(#a)" transform="translate(-36 -17)">
        <path fill="#0093FF" d="M88.182 86.46H80.62a9.457 9.457 0 0 1 0-18.914h7.56V86.46z"/>
        <g fill="#2D527C">
            <path d="M88.182 88.662H80.62c-6.429 0-11.66-5.23-11.66-11.66 0-6.428 5.231-11.658 11.66-11.658h7.56c1.217 0 2.203.986 2.203 2.202V86.46a2.202 2.202 0 0 1-2.202 2.202zM80.62 69.748c-4 0-7.254 3.255-7.254 7.255s3.254 7.254 7.254 7.254h5.359V69.748h-5.36z"/>
            <path d="M97.323 88.662H80.536c-6.429 0-11.659-5.23-11.659-11.66 0-6.428 5.23-11.658 11.659-11.658h16.787c6.429 0 11.659 5.23 11.659 11.659 0 6.428-5.23 11.659-11.659 11.659zM80.536 69.748c-4 0-7.254 3.255-7.254 7.255s3.254 7.254 7.254 7.254h16.787c4 0 7.254-3.254 7.254-7.254 0-4-3.254-7.255-7.254-7.255H80.536z"/>
            <path d="M109.97 102H67.89c-5.4 0-9.794-4.393-9.794-9.793V63.341c0-5.067 3.87-9.248 8.81-9.744V52.45a2.202 2.202 0 0 1 4.404 0v3.302a2.202 2.202 0 0 1-2.202 2.202h-1.219a5.394 5.394 0 0 0-5.388 5.388v28.866a5.394 5.394 0 0 0 5.388 5.388h42.081a5.394 5.394 0 0 0 5.388-5.388v-12a2.202 2.202 0 0 1 4.405 0v12c0 5.4-4.393 9.793-9.793 9.793zM117.56 70.065a2.202 2.202 0 0 1-2.202-2.202v-4.522a5.394 5.394 0 0 0-5.388-5.388h-1.218a2.202 2.202 0 0 1-2.203-2.202v-3.302a2.202 2.202 0 0 1 4.405 0v1.148c4.94.496 8.809 4.677 8.809 9.744v4.522a2.202 2.202 0 0 1-2.202 2.202z"/>
        </g>
        <path fill="#13BA8E" d="M110.183 43.857H67.676a6.827 6.827 0 1 1 0-13.655h42.507a6.828 6.828 0 0 1 0 13.655z"/>
        <path fill="#2D527C" d="M110.183 46.06H67.676c-4.979 0-9.03-4.051-9.03-9.03 0-4.98 4.051-9.03 9.03-9.03h42.507c4.98 0 9.03 4.05 9.03 9.03 0 4.979-4.051 9.03-9.03 9.03zM67.676 32.404a4.63 4.63 0 0 0-4.625 4.625 4.63 4.63 0 0 0 4.625 4.625h42.507a4.63 4.63 0 0 0 4.625-4.625 4.63 4.63 0 0 0-4.625-4.625H67.676z"/>
    </g>
</svg>
