<svg xmlns="http://www.w3.org/2000/svg" width="100" height="100" viewBox="0 0 100 100">
    <g fill="none" fill-rule="nonzero">
        <path fill="#2D527C" d="M97.39 85.87a8.112 8.112 0 0 1 2.389 5.764 8.11 8.11 0 0 1-2.389 5.762 8.163 8.163 0 0 1-5.78 2.385 8.157 8.157 0 0 1-5.776-2.385L62.01 73.634a1.952 1.952 0 0 1 0-2.775l.952-.95-2.338-2.333c-6.743 5.186-14.861 7.78-22.976 7.78-9.646 0-19.292-3.66-26.633-10.984-14.685-14.646-14.685-38.479 0-53.125C25.7-3.4 49.595-3.4 64.28 11.247c13.52 13.487 14.59 34.761 3.213 49.481l2.336 2.33.952-.95a1.973 1.973 0 0 1 2.785 0L97.39 85.87zm-2.784 8.751a4.222 4.222 0 0 0 0-5.974l-22.43-22.374-5.99 5.974 22.43 22.374a4.25 4.25 0 0 0 5.99 0zM71.375 37.81c0-8.984-3.51-17.432-9.88-23.785-6.37-6.353-14.84-9.853-23.847-9.853-9.01 0-17.48 3.5-23.85 9.853C7.427 20.377 3.92 28.825 3.92 37.81c0 8.985 3.506 17.432 9.876 23.786 6.37 6.353 14.84 9.853 23.85 9.853 9.009 0 17.478-3.5 23.849-9.853 6.37-6.354 9.879-14.801 9.879-23.786zm-5.628 29.323l1.3-1.296-2.127-2.12c-.21.222-.425.44-.64.657-.218.217-.438.429-.659.638l2.126 2.12z"/>
        <path fill="#0093FF" d="M94.606 88.647a4.222 4.222 0 0 1 0 5.974 4.249 4.249 0 0 1-5.99 0l-22.43-22.374 5.99-5.974 22.43 22.374z"/>
        <path fill="#13BA8E" d="M61.496 14.024c6.37 6.353 9.879 14.801 9.879 23.785 0 8.985-3.51 17.432-9.88 23.786-6.37 6.353-14.84 9.853-23.847 9.853-9.01 0-17.48-3.5-23.85-9.853C7.427 55.24 3.92 46.794 3.92 37.809c0-8.984 3.506-17.432 9.876-23.785 6.37-6.353 14.84-9.853 23.85-9.853 9.009 0 17.478 3.5 23.849 9.853zm5.726 23.785c0-7.88-3.078-15.285-8.664-20.858-5.585-5.57-13.013-8.639-20.91-8.639-7.9 0-15.329 3.068-20.914 8.639-5.585 5.573-8.661 12.979-8.661 20.858 0 7.88 3.076 15.286 8.661 20.86 5.585 5.57 13.013 8.638 20.914 8.638 7.897 0 15.325-3.068 20.91-8.639 5.586-5.573 8.664-12.979 8.664-20.859zM67.046 65.836l-1.299 1.295-2.126-2.12c.22-.21.441-.421.66-.639.214-.217.43-.434.64-.657l2.125 2.12z"/>
        <path fill="#2D527C" d="M58.558 16.95c5.586 5.574 8.664 12.98 8.664 20.86 0 7.879-3.078 15.285-8.664 20.858-5.585 5.57-13.013 8.639-20.91 8.639-7.9 0-15.329-3.068-20.914-8.639C11.15 53.095 8.073 45.69 8.073 37.81c0-7.88 3.076-15.285 8.661-20.858 5.585-5.57 13.013-8.639 20.914-8.639 7.897 0 15.325 3.068 20.91 8.639zm-2.782 38.94c9.995-9.97 9.995-26.19 0-36.161-4.842-4.83-11.28-7.49-18.128-7.49-6.848 0-13.286 2.66-18.129 7.49-9.997 9.97-9.997 26.19 0 36.162 4.843 4.83 11.281 7.49 18.129 7.49 6.848 0 13.286-2.66 18.128-7.49z"/>
        <path fill="#000" d="M53.955 21.545a1.957 1.957 0 0 1 0 2.775 1.96 1.96 0 0 1-1.391.576 1.966 1.966 0 0 1-1.394-.576 19.136 19.136 0 0 0-3.598-2.822 1.962 1.962 0 0 1-.66-2.699 1.975 1.975 0 0 1 2.707-.657 23.275 23.275 0 0 1 4.336 3.403zM53.955 51.299a1.957 1.957 0 0 1 0 2.775c-4.37 4.358-10.184 6.74-16.27 6.74a23.49 23.49 0 0 1-2.77-.164 1.961 1.961 0 0 1-1.721-2.18 1.964 1.964 0 0 1 2.186-1.718c5.864.694 11.62-1.293 15.79-5.453a1.973 1.973 0 0 1 2.785 0zM41.212 15.082a1.963 1.963 0 1 1-.606 3.88c-6.019-.935-12.181 1.067-16.483 5.358a1.956 1.956 0 0 1-1.391.576 1.966 1.966 0 0 1-1.394-.576 1.957 1.957 0 0 1 0-2.775c5.189-5.175 12.617-7.589 19.874-6.463zM27.543 54.011a1.96 1.96 0 0 1-1.045 3.628 1.96 1.96 0 0 1-1.04-.296 23.188 23.188 0 0 1-4.12-3.27 1.957 1.957 0 0 1 0-2.774 1.973 1.973 0 0 1 2.785 0 19.184 19.184 0 0 0 3.42 2.712z"/>
    </g>
</svg>
