<svg xmlns="http://www.w3.org/2000/svg" width="111" height="100" viewBox="0 0 111 100">
    <g fill="none" fill-rule="nonzero">
        <path fill="#13BA8E" d="M107.538 47.022c-1.798-15.243-15.612-26.14-30.856-24.34-15.243 1.798-26.14 15.615-24.34 30.855a27.71 27.71 0 0 0 3.132 9.888l-5.513 14.019h24.198c2.898.617 5.936.802 9.041.434 15.24-1.798 26.137-15.612 24.338-30.856z"/>
        <path fill="#000" d="M80.01 80.564c-2.033 0-4.08-.207-6.11-.622H49.96c-.826 0-1.6-.41-2.063-1.092a2.485 2.485 0 0 1-.26-2.32l5.102-12.968a30.102 30.102 0 0 1-2.876-9.73c-.949-8.033 1.29-15.957 6.298-22.31 5.011-6.35 12.196-10.372 20.232-11.32 8.03-.948 15.955 1.288 22.31 6.3 6.352 5.01 10.37 12.195 11.319 20.228.949 8.034-1.29 15.958-6.298 22.31-5.011 6.35-12.196 10.372-20.232 11.322a30.047 30.047 0 0 1-3.482.202zm-26.382-5.618H74.16c.175 0 .35.017.52.055a25.25 25.25 0 0 0 8.226.397c6.712-.792 12.71-4.15 16.895-9.453 4.184-5.306 6.052-11.92 5.258-18.63-.79-6.71-4.147-12.708-9.453-16.892-5.303-4.184-11.926-6.05-18.628-5.26-6.712.79-12.71 4.148-16.894 9.452-4.184 5.306-6.053 11.92-5.258 18.63a25.097 25.097 0 0 0 2.852 8.996c.348.647.393 1.414.125 2.098l-4.174 10.607z"/>
        <path fill="#FFF" d="M91.056 44.722h-5.558v-5.558a5.558 5.558 0 1 0-11.116 0v5.558h-5.558a5.558 5.558 0 1 0 0 11.116h5.558v5.558a5.558 5.558 0 1 0 11.116 0v-5.558h5.558a5.558 5.558 0 1 0 0-11.116z"/>
        <path fill="#0093FF" d="M22.058 97.428l-5.943-3.035A24.984 24.984 0 0 1 2.498 72.148V27.785A24.976 24.976 0 0 1 16.115 5.54l5.943-3.038h12.915a4.995 4.995 0 0 1 4.996 4.996v14.988a4.995 4.995 0 0 1-4.996 4.996h-2.498c-5.519 0-9.993 4.474-9.993 9.993v24.98c0 5.519 4.474 9.993 9.993 9.993h2.498a4.995 4.995 0 0 1 4.996 4.996v14.988a4.995 4.995 0 0 1-4.996 4.996H22.058z"/>
        <path fill="#000" d="M34.973 99.926H22.058c-.395 0-.784-.095-1.137-.272l-5.943-3.035C5.741 91.9 0 82.522 0 72.148V27.785C0 17.411 5.74 8.033 14.978 3.315L20.921.278a2.5 2.5 0 0 1 1.137-.275h12.915c4.131 0 7.494 3.363 7.494 7.495v14.988c0 4.132-3.363 7.494-7.494 7.494h-2.499c-4.131 0-7.494 3.362-7.494 7.494v24.98c0 4.133 3.363 7.495 7.494 7.495h2.499c4.131 0 7.494 3.362 7.494 7.494v14.988c0 4.132-3.363 7.494-7.494 7.494zM22.657 94.93h12.316a2.5 2.5 0 0 0 2.498-2.498V77.444a2.5 2.5 0 0 0-2.498-2.498h-2.498c-6.887 0-12.49-5.603-12.49-12.49V37.475c0-6.887 5.603-12.49 12.49-12.49h2.498a2.5 2.5 0 0 0 2.498-2.498V7.498A2.5 2.5 0 0 0 34.973 5H22.657l-5.405 2.763C9.692 11.625 4.996 19.297 4.996 27.785v44.363c0 8.488 4.696 16.16 12.256 20.022l5.405 2.76z"/>
        <circle cx="29.977" cy="84.938" r="2.498" fill="#000"/>
        <circle cx="19.984" cy="82.44" r="2.498" fill="#000"/>
        <circle cx="29.977" cy="14.993" r="2.498" fill="#000"/>
        <circle cx="19.984" cy="17.491" r="2.498" fill="#000"/>
    </g>
</svg>
